<svg xmlns="http://www.w3.org/2000/svg" width="256" height="256" viewBox="0 0 256 256">
  <path d="m 256 128 c 0 -70.6925 -57.3075 -128 -128 -128 C 57.3075 0 0 57.3075 0 128 C 0 191.8885 46.8077 244.8425 108 254.445 V 165 H 75.5 v -37 h 32.5 v -28.2 c 0 -32.08 19.1095 -49.8 48.3475 -49.8 c 14.0043 0 28.6525 2.5 28.6525 2.5 V 84 H 168.8595 C 152.9588 84 148 93.8667 148 103.9892 V 128 H 183.5 L 177.825 165 H 148 V 254.445 C 209.1923 244.8425 256 191.8885 256 128" fill="#100f0d" />
  <path d="m 177.825 165 l 5.675 -37 H 148 v -24.0108 c 0 -10.1225 4.9588 -19.9893 20.8595 -19.9893 H 185 v -31.5 c 0 0 -14.6482 -2.5 -28.6525 -2.5 C 127.1095 50 108 67.72 108 99.8 V 128 H 75.5 V 165 H 108 V 254.445 C 114.5168 255.4675 121.196 256 128 256 c 6.804 0 13.4833 -0.5325 20 -1.555 V 165 h 29.825" fill="#ffffff" />
</svg>
