<svg width="18" height="18" viewBox="0 0 18 18" fill="none" xmlns="http://www.w3.org/2000/svg">
<path fill-rule="evenodd" clip-rule="evenodd" d="M 10.5172 13.0575 C 10.4647 14.4295 9.3093 15.5306 7.8929 15.5306 C 7.5691 15.5306 7.2591 15.4729 6.9727 15.3675 C 7.2591 15.4729 7.5692 15.5306 7.893 15.5306 C 9.3094 15.5306 10.4648 14.4295 10.5174 13.0576 L 10.5224 0.8063 H 12.8124 C 13.0331 1.971 13.7405 2.9704 14.7205 3.5948 C 14.7208 3.5952 14.7212 3.5956 14.7215 3.596 C 15.4037 4.0305 16.2171 4.284 17.0903 4.284 V 4.9645 C 17.0903 4.9645 17.0903 4.9645 17.0904 4.9646 V 7.3405 C 15.4684 7.3405 13.9654 6.8334 12.7386 5.9728 V 12.1852 C 12.7386 15.2878 10.1559 17.8119 6.9812 17.8119 C 5.7545 17.8119 4.6169 17.4338 3.6818 16.7921 C 3.6813 16.7916 3.6808 16.791 3.6802 16.7905 C 2.1964 15.7717 1.224 14.0876 1.224 12.1846 C 1.224 9.0821 3.8067 6.5579 6.9814 6.5579 C 7.2448 6.5579 7.503 6.5791 7.7572 6.6128 V 7.337 C 4.861 7.4031 2.4865 9.5682 2.1713 12.3333 C 2.4868 9.5685 4.8611 7.4037 7.7571 7.3376 V 9.7342 C 7.5115 9.6591 7.2519 9.6154 6.9812 9.6154 C 5.5314 9.6154 4.3519 10.7683 4.3519 12.1852 C 4.3519 13.1719 4.9247 14.0292 5.7616 14.4596 C 5.7616 14.4597 5.7616 14.4597 5.7616 14.4597 C 6.1265 14.6474 6.541 14.7549 6.9811 14.7549 C 8.3975 14.7549 9.5529 13.6538 9.6055 12.2819 L 9.6105 0.0305 H 12.7385 C 12.7385 0.2955 12.7646 0.5545 12.8123 0.8063 H 10.5223 L 10.5172 13.0575 Z" fill="#161823"/>
</svg>
